<svg xmlns="http://www.w3.org/2000/svg" viewBox="-8.0 18.0 248.9 106.0" width="249" height="106" role="img" aria-label="libera"><title>libera</title><path d="M18.6 25.700000000000003V100.0H6.25V25.700000000000003Z M40.75 48.699999999999996V100.0H28.400000000000002V48.699999999999996Z M62.8 86.7Q64.9 89.25 67.375 90.3Q69.85 91.35 72.6 91.35Q75.45 91.35 77.725 90.32499999999999Q80.0 89.3 81.6 87.125Q83.2 84.95 84.05000000000001 81.575Q84.9 78.2 84.9 73.5Q84.9 65.05 82.10000000000001 61.275Q79.30000000000001 57.5 74.05000000000001 57.5Q70.5 57.5 67.85 59.125Q65.2 60.75 62.8 63.699999999999996ZM62.8 55.0Q65.9 51.75 69.67500000000001 49.825Q73.45 47.9 78.30000000000001 47.9Q82.75 47.9 86.325 49.65Q89.9 51.4 92.42500000000001 54.675Q94.95 57.949999999999996 96.30000000000001 62.599999999999994Q97.65 67.25 97.65 73.05Q97.65 79.3 96.10000000000001 84.4Q94.55000000000001 89.5 91.67500000000001 93.125Q88.80000000000001 96.75 84.75 98.75Q80.7 100.75 75.75 100.75Q73.35 100.75 71.4 100.275Q69.45 99.8 67.80000000000001 98.94999999999999Q66.15 98.1 64.775 96.875Q63.400000000000006 95.65 62.150000000000006 94.15L61.6 97.6Q61.3 98.9 60.575 99.45Q59.85 100.0 58.6 100.0H50.45V25.700000000000003H62.8Z M137.25 68.45Q137.25 66.05 136.575 63.925Q135.9 61.8 134.55 60.199999999999996Q133.2 58.599999999999994 131.125 57.675Q129.05 56.75 126.3 56.75Q120.94999999999999 56.75 117.875 59.8Q114.8 62.85 113.94999999999999 68.45ZM113.69999999999999 75.9Q114.0 79.85 115.1 82.725Q116.19999999999999 85.6 118.0 87.475Q119.8 89.35 122.275 90.275Q124.75 91.2 127.75 91.2Q130.75 91.2 132.925 90.5Q135.1 89.8 136.725 88.94999999999999Q138.35 88.1 139.575 87.4Q140.8 86.7 141.95 86.7Q143.5 86.7 144.25 87.85L147.8 92.35Q145.75 94.75 143.2 96.375Q140.65 98.0 137.875 98.975Q135.1 99.95 132.225 100.35Q129.35 100.75 126.64999999999999 100.75Q121.3 100.75 116.69999999999999 98.975Q112.1 97.2 108.69999999999999 93.725Q105.3 90.25 103.35 85.125Q101.39999999999999 80.0 101.39999999999999 73.25Q101.39999999999999 68.0 103.1 63.375Q104.8 58.75 107.975 55.325Q111.14999999999999 51.9 115.725 49.9Q120.3 47.9 126.05 47.9Q130.9 47.9 135.0 49.45Q139.1 51.0 142.05 53.974999999999994Q145.0 56.949999999999996 146.675 61.27499999999999Q148.35 65.6 148.35 71.15Q148.35 73.95 147.75 74.92500000000001Q147.15 75.9 145.45 75.9Z M166.25 57.599999999999994Q168.65 53.0 171.95 50.375Q175.25 47.75 179.75 47.75Q183.3 47.75 185.45 49.3L184.65 58.55Q184.4 59.449999999999996 183.925 59.824999999999996Q183.45 60.199999999999996 182.65 60.199999999999996Q181.9 60.199999999999996 180.425 59.949999999999996Q178.95 59.699999999999996 177.55 59.699999999999996Q175.5 59.699999999999996 173.9 60.3Q172.3 60.9 171.025 62.025Q169.75 63.15 168.775 64.75Q167.8 66.35 166.95 68.4V100.0H154.6V48.699999999999996H161.85Q163.75 48.699999999999996 164.5 49.375Q165.25 50.05 165.5 51.8Z M215.35000000000002 78.1Q210.0 78.35 206.35000000000002 79.025Q202.70000000000002 79.7 200.5 80.75Q198.3 81.8 197.35000000000002 83.19999999999999Q196.4 84.6 196.4 86.25Q196.4 89.5 198.325 90.9Q200.25 92.3 203.35000000000002 92.3Q207.15 92.3 209.925 90.925Q212.70000000000002 89.55 215.35000000000002 86.75ZM187.05 55.849999999999994Q195.9 47.75 208.35000000000002 47.75Q212.85000000000002 47.75 216.40000000000003 49.224999999999994Q219.95000000000002 50.699999999999996 222.40000000000003 53.324999999999996Q224.85000000000002 55.949999999999996 226.125 59.599999999999994Q227.4 63.25 227.4 67.6V100.0H221.8Q220.05 100.0 219.10000000000002 99.475Q218.15 98.95 217.60000000000002 97.35L216.5 93.65Q214.55 95.4 212.70000000000002 96.725Q210.85000000000002 98.05 208.85000000000002 98.94999999999999Q206.85000000000002 99.85 204.57500000000002 100.32499999999999Q202.3 100.8 199.55 100.8Q196.3 100.8 193.55 99.925Q190.8 99.05 188.8 97.3Q186.8 95.55 185.7 92.94999999999999Q184.6 90.35 184.6 86.9Q184.6 84.95 185.25 83.025Q185.9 81.1 187.375 79.35Q188.85 77.6 191.2 76.05Q193.55 74.5 196.97500000000002 73.35Q200.4 72.2 204.95 71.475Q209.5 70.75 215.35000000000002 70.6V67.6Q215.35000000000002 62.449999999999996 213.15000000000003 59.974999999999994Q210.95000000000002 57.5 206.8 57.5Q203.8 57.5 201.825 58.2Q199.85 58.9 198.35 59.775Q196.85 60.65 195.625 61.349999999999994Q194.4 62.05 192.9 62.05Q191.6 62.05 190.7 61.375Q189.8 60.699999999999996 189.25 59.8Z" fill="#1E1A17"/><rect x="27.08" y="21.70" width="15.00" height="15.00" rx="4.00" fill="#B5462B"/></svg>
